<svg width="36" height="36" viewBox="0 0 36 36" fill="none" xmlns="http://www.w3.org/2000/svg">
<g clip-path="url(#clip0_4858_30231)">
<path d="M22.1162 10.9583C21.1188 9.97141 19.8097 9.43877 18.3993 9.45444C17.7526 9.45444 17.2383 9.99491 17.2383 10.6372C17.2383 11.2795 17.7681 11.8043 18.4071 11.8043C18.4149 11.8043 18.4305 11.8043 18.4461 11.8043C20.0279 11.8043 21.3292 13.0967 21.3448 14.6868C21.3448 15.3291 21.8747 15.8539 22.5136 15.8539H22.5214C23.1682 15.8539 23.6825 15.3134 23.6825 14.6711C23.6669 13.269 23.1136 11.9453 22.1162 10.9662V10.9583Z" fill="#126ED3"/>
<path d="M18.5867 2.34204C18.6335 2.34204 18.6724 2.34204 18.7114 2.34204C24.727 2.34204 29.8777 6.82245 30.727 12.8068C30.8128 13.3943 31.3115 13.8172 31.8803 13.8172C31.9348 13.8172 31.9894 13.8172 32.0439 13.8094C32.6829 13.7154 33.127 13.1201 33.0335 12.4778C32.0206 5.34204 25.8725 0 18.7036 0C18.6569 0 18.6101 0 18.5634 0C17.9166 0 17.4023 0.54047 17.4023 1.18277C17.4023 1.82507 17.9322 2.34987 18.5711 2.34987L18.5867 2.34204Z" fill="#126ED3"/>
<path d="M28.4514 15.4695C28.5605 12.6654 27.5631 9.82989 25.4358 7.69934C21.3917 3.63407 14.815 3.63407 10.7786 7.69934C8.69809 9.79073 7.63834 12.5949 7.76302 15.5087C6.03314 15.9552 4.38898 16.8481 3.03313 18.2111C-1.01104 22.2763 -1.01104 28.8873 3.03313 32.9447C5.05132 34.9735 7.70847 35.9917 10.3656 35.9917C13.0228 35.9917 15.6721 34.9735 17.6981 32.9447C17.8618 32.7803 18.0098 32.6001 18.1657 32.4278C20.067 34.6132 22.8488 35.9996 25.9579 35.9996C31.6774 35.9996 36.3216 31.3233 36.3216 25.5818C36.3216 20.7881 33.0021 16.6053 28.4514 15.4695ZM25.9579 33.6575C21.5319 33.6575 17.9319 30.0387 17.9319 25.5897C17.9319 24.9395 17.4098 24.4147 16.7631 24.4147C16.1163 24.4147 15.5942 24.9395 15.5942 25.5897C15.5942 27.3364 16.0306 28.9813 16.7864 30.4304C16.5605 30.7359 16.3189 31.0257 16.0462 31.2998C12.9137 34.4487 7.81757 34.4487 4.69288 31.2998C1.5604 28.151 1.5604 23.0361 4.69288 19.8873C7.82536 16.7385 12.9137 16.7385 16.0462 19.8873C16.5059 20.3494 17.2462 20.3494 17.6981 19.8873C18.1501 19.4252 18.1579 18.681 17.6981 18.2267C15.602 16.1197 12.828 15.1171 10.0773 15.1954C10.0461 13.0179 10.8721 10.9343 12.4306 9.37558C15.5631 6.22676 20.6514 6.22676 23.7839 9.37558C26.9163 12.5244 26.9163 17.6471 23.7839 20.7881C23.3241 21.2502 23.3241 21.9944 23.7839 22.4487C24.0098 22.6758 24.3137 22.7933 24.6098 22.7933C24.906 22.7933 25.2098 22.6758 25.4358 22.4487C26.7605 21.1171 27.641 19.5192 28.093 17.8272C31.506 18.7829 33.9839 21.963 33.9839 25.5975C33.9839 30.0466 30.3839 33.6654 25.9579 33.6654V33.6575Z" fill="#126ED3"/>
</g>
<defs>
<clipPath id="clip0_4858_30231">
<rect width="36" height="36" fill="#126ED3"/>
</clipPath>
</defs>
</svg>
